Coordinates
version=1
nRows=17
nColumns=24
inDegrees=yes

Units are S.I. units (second, meters, Newtons, ...)
Angles are in degrees.

endheader
time	pelvis_tilt	pelvis_list	pelvis_rotation	pelvis_tx	pelvis_ty	pelvis_tz	hip_flexion_r	hip_adduction_r	hip_rotation_r	knee_angle_r	ankle_angle_r	subtalar_angle_r	mtp_angle_r	hip_flexion_l	hip_adduction_l	hip_rotation_l	knee_angle_l	ankle_angle_l	subtalar_angle_l	mtp_angle_l	lumbar_extension	lumbar_bending	lumbar_rotation
      1.30750000	     -1.42907417	      2.08527237	     -4.98672018	      0.03755264	      0.96356161	      0.36645629	    -19.83669124	     -2.72224235	     -3.77242175	     -6.93371924	     19.85531984	      4.50149609	     -2.05422654	     26.04500418	      0.87927127	     -2.40078501	      3.53689778	     -2.08730040	     -7.47512717	     -1.21342359	    -13.95483600	      2.65581206	      8.61025816
      1.31166667	     -1.44314455	      2.23351951	     -5.00134145	      0.04355641	      0.96297886	      0.36593446	    -19.97166140	     -2.96287616	     -3.87848128	     -7.33665815	     19.62417029	      4.51584009	      1.76255168	     26.15285257	      1.08910156	     -2.14117182	      2.87046800	     -2.65427253	     -8.12555737	      0.53902994	    -13.89085228	      2.45458460	      8.57443017
      1.31583333	     -1.49934638	      2.41601694	     -5.03093082	      0.04964267	      0.96238988	      0.36541763	    -20.04991659	     -3.24356265	     -3.98335595	     -7.76494507	     19.43067617	      4.64507992	      1.82044379	     26.31169273	      1.32379516	     -1.97909179	      2.16878971	     -3.16652901	     -8.61897592	      0.52435171	    -13.75720397	      2.20495930	      8.61687598
      1.32000000	     -1.54703634	      2.60950133	     -5.05360686	      0.05575725	      0.96184846	      0.36488190	    -20.12892137	     -3.53338337	     -4.07708068	     -8.21012977	     19.20257112	      4.70982779	      1.92703853	     26.45039014	      1.57735717	     -1.78430193	      1.48620820	     -3.78554664	     -9.23267600	      0.52544337	    -13.64144537	      1.94013821	      8.60804233
      1.32416667	     -1.59268553	      2.81197472	     -5.07632309	      0.06191223	      0.96135206	      0.36433470	    -20.19760945	     -3.83385199	     -4.17374170	     -8.67901596	     18.93276875	      4.75241373	      2.09282971	     26.58571579	      1.84281536	     -1.60730041	      0.80009587	     -4.46136926	     -9.88423807	      0.54397979	    -13.52177228	      1.66010381	      8.60711652
      1.32833333	     -1.65409371	      3.03112966	     -5.09990038	      0.06810798	      0.96087884	      0.36377826	    -20.24412029	     -4.15026351	     -4.24803654	     -9.15354713	     18.64659589	      4.77963799	      2.28857827	     26.74107348	      2.12426679	     -1.47254966	      0.10473252	     -5.20464450	    -10.53102815	      0.57033122	    -13.38868425	      1.37132889	      8.59962136
      1.33250000	     -1.70224263	      3.25898457	     -5.12090736	      0.07433621	      0.96046390	      0.36319772	    -20.27678733	     -4.48014274	     -4.36024252	     -9.68495873	     18.28083802	      4.79448676	      2.60032242	     26.87005224	      2.42113478	     -1.30105953	     -0.57071099	     -5.96599093	    -11.26827249	      0.62164794	    -13.25720338	      1.05513112	      8.59449418
      1.33666667	     -1.77187932	      3.49841606	     -5.14637393	      0.08059966	      0.96007237	      0.36262164	    -20.28520857	     -4.81904349	     -4.42542489	    -10.21038190	     17.93774170	      4.78425237	      2.92482222	     27.03696535	      2.72356014	     -1.22595253	     -1.27698785	     -6.80170050	    -11.95244939	      0.66996283	    -13.10299299	      0.74512154	      8.58811584
      1.34083333	     -1.83183628	      3.75000296	     -5.16798855	      0.08689947	      0.95973762	      0.36202895	    -20.28472310	     -5.17220615	     -4.51182646	    -10.77179614	     17.52520082	      4.75722900	      3.30865497	     27.18933141	      3.04258120	     -1.14767849	     -1.98019797	     -7.63453399	    -12.66043534	      0.72412624	    -12.94834284	      0.40934469	      8.57539794
      1.34500000	     -1.90168292	      4.01061466	     -5.18876558	      0.09322045	      0.95943241	      0.36141977	    -20.25685998	     -5.53520466	     -4.58930257	    -11.36201570	     17.08121288	      4.71443338	      3.73942777	     27.35812125	      3.36995809	     -1.09014532	     -2.69865881	     -8.45763921	    -13.34880327	      0.77756043	    -12.78589990	      0.06741875	      8.56226406
      1.34916667	     -1.93004586	      4.30090524	     -5.18868470	      0.09960542	      0.95921516	      0.36078042	    -20.27396309	     -5.92780592	     -4.72853401	    -11.93993246	     16.45756277	      4.58610350	     10.11402821	     27.49034347	      3.73982054	     -1.05268528	     -3.44373701	     -9.17689937	    -13.97172190	      1.58817429	    -12.66704612	     -0.31258556	      8.48560639
      1.35333333	     -2.01276403	      4.56548212	     -5.21685420	      0.10596189	      0.95899967	      0.36017170	    -20.19744482	     -6.29448017	     -4.75325090	    -12.58080968	     15.91580368	      4.47908842	     10.18452029	     27.68846621	      4.06367505	     -1.06644470	     -4.21030995	     -9.92663305	    -14.56929048	      1.56025011	    -12.49035239	     -0.65938714	      8.51520268
      1.35750000	     -2.07679805	      4.85785235	     -5.22897536	      0.11235964	      0.95883921	      0.35952807	    -20.12276291	     -6.69011305	     -4.82901244	    -13.26023774	     15.34724823	      4.39548701	     10.33741804	     27.86367740	      4.42738538	     -1.05233269	     -4.97824465	    -10.62816893	    -15.20714181	      1.52853721	    -12.32761677	     -1.03512883	      8.48891094
      1.36166667	     -2.11637524	      5.16120629	     -5.22050966	      0.11879545	      0.95874631	      0.35883473	    -20.06626029	     -7.09623559	     -4.94673211	    -13.95491553	     14.69712255	      4.32633045	     10.76343565	     28.00934139	      4.81951939	     -0.97813300	     -5.75386078	    -11.23370349	    -15.86685725	      1.46609523	    -12.19197462	     -1.43056630	      8.46672811
      1.36583333	     -2.18910622	      5.45805076	     -5.23857586	      0.12520355	      0.95866540	      0.35819551	    -19.93351358	     -7.49672984	     -4.97406102	    -14.71253545	     14.07232090	      4.16426127	     11.02087426	     28.22434139	      5.17677157	     -1.06839519	     -6.60512563	    -11.77384455	    -16.31098510	      1.41929645	    -12.01845517	     -1.80493461	      8.41986134
      1.37000000	     -2.19578863	      5.79212648	     -5.22711255	      0.13167788	      0.95868786	      0.35747941	    -19.87304080	     -7.94071037	     -5.10371894	    -15.46270111	     13.32699608	      4.00753228	     16.00868418	     28.35678806	      5.60466765	     -1.04488771	     -7.45171998	    -12.15162540	    -16.86177731	      0.65598350	    -11.91811676	     -2.23505764	      8.33339298
      1.37416667	     -2.23327052	      6.09470913	     -5.22153755	      0.13814796	      0.95874048	      0.35680218	    -19.76771173	     -8.34118836	     -5.13884426	    -16.22241999	     12.50661383	      3.84387893	     16.03570740	     28.54558944	      5.98296626	     -1.11828933	     -8.36472793	    -12.40890480	    -17.16759085	      0.64426490	    -11.78338691	     -2.62894937	      8.29884203
